<?xml version="1.0" encoding="utf-8"?>
<svg viewBox="0 0 1000 1000" style="enable-background:new 0 0 1920 1080;" xmlns="http://www.w3.org/2000/svg">
  <defs>
    <style type="text/css">
	.st0{fill:#2B343F;}
	.st1{fill-rule:evenodd;clip-rule:evenodd;fill:#5EBF87;}
	.st2{fill-rule:evenodd;clip-rule:evenodd;fill:#16BBB3;}
	.st3{fill-rule:evenodd;clip-rule:evenodd;fill:#EF485F;}
	.st4{fill-rule:evenodd;clip-rule:evenodd;fill:#FFD134;}
	.st5{fill-rule:evenodd;clip-rule:evenodd;fill:#AC7165;}
	.st6{fill-rule:evenodd;clip-rule:evenodd;fill:#227C52;}
</style>
  </defs>
  <g transform="matrix(1.363429, 0, 0, 1.363429, -808.891968, -188.872574)" style="">
    <g>
      <g>
        <g>
          <path class="st0" d="M982.8,601.7c0,0-12.6-70.6-15.2-81.4c-2.6-10.8-12-32.9-37.6-43.2c-9.9-2.8-19.1-9.7-24.9-13.3 c-2.5-1.7-8.3,4.9-0.3,12.2c8,7.3,21.5,18.8,21.5,18.8s-15.3,4.1-27-4.8c-11.6-8.9-19.1-15.7-25-21.8 c-5.8-6.1-19.7-12.1-13.2-1.9c6.5,10.3,24.9,42.5,49.7,45.8c24.7,3.2,31.4,11.4,35.4,28.3c4,16.9-8.3,61.4-8.3,61.4H982.8z"/>
          <path class="st0" d="M1046.4,468c-5.8,6.1-13.3,12.9-25,21.8c-11.6,8.9-27,4.8-27,4.8s13.5-11.5,21.5-18.8 c8-7.3,2.2-13.9-0.3-12.2c-5.8,3.6-15.1,10.5-24.9,13.3c-13.6,5.5-22.6,14.2-28.5,22.9c5.2,8.2,7.5,15.7,8.5,19.7 c0.7,3.2,2.4,10.4,4.3,18.9c4-15.7,11.1-23.4,34.9-26.5c24.7-3.2,43.2-35.5,49.7-45.8C1066,455.9,1052.2,462,1046.4,468z"/>
        </g>
      </g>
      <g>
        <path class="st1" d="M831.6,361.3c0-0.1,0.1-0.1,0.1-0.2c0.1-0.2,0.2-0.4,0.3-0.6c0-0.1,0.1-0.1,0.1-0.2c0.1-0.2,0.2-0.4,0.3-0.6 c0,0,0,0,0-0.1c0.1-0.2,0.2-0.5,0.3-0.7c0-0.1,0-0.1,0.1-0.2c0.1-0.3,0.2-0.5,0.3-0.8c1.3-3.1,1.1-6-0.3-10.4 c-0.9-3.2-1.3-7.8-2.5-13c-1.5-5-4.3-5.2-4.2-2.3c0.1,2.5-0.3,5.1-0.9,7.8c-1.3,4.1-4.6,6-8.6,2.9c-5-3.9-9.7-8.6-14.2-13.5 c-2.3-2.6-4.4-1.5-2,1.7c2.6,3.9,6.1,6.8,9.7,12.3c1.8,2.3,0.2,2.5-2.2,1.5c-8.6-4-12.1-6.2-17.7-9.6c-0.2-0.1-0.4-0.2-0.6-0.3 c0,0,0,0-0.1,0c-0.2-0.1-0.4-0.2-0.5-0.2c0,0-0.1,0-0.1,0c-0.2-0.1-0.3-0.1-0.5-0.1c0,0-0.1,0-0.1,0c-0.2,0-0.3,0-0.4,0 c0,0,0,0-0.1,0c-0.1,0-0.3,0-0.4,0c0,0,0,0,0,0c-0.1,0-0.2,0.1-0.3,0.1c0,0,0,0,0,0c-0.1,0-0.2,0.1-0.2,0.2c0,0,0,0,0,0 c-0.1,0.1-0.1,0.1-0.2,0.2c0,0,0,0,0,0c0,0.1-0.1,0.1-0.1,0.2l0,0c-0.2,0.7,0.3,1.8,1.7,2.8c5.7,3.8,10.9,7.6,16.8,11.1 c3,1.7,3,2.6,0.5,1.8c-5.7-1.4-10.9-2.8-16.6-5.3c-3.6-1.6-4.2,1.5-1.4,2.8c5,3,12.3,5.1,19.3,8.1c1.6,0.6,1.1,1.6-0.3,1.6 l-8.2-0.4c-2.1-0.2-3.3,1.8-0.5,3c4.6,1.4,9.9,1.5,15.9,2.5c5.8,1.1,13.3,3.8,17.3-1.4l0,0c0,0,0-0.1,0.1-0.1 c0-0.1,0.1-0.1,0.1-0.2C831.5,361.6,831.5,361.5,831.6,361.3z"/>
        <path class="st2" d="M1070.9,291.5l-7.5,7c-1.4,1.1-2.6,0.6-1.6-1.3c4.4-8.6,9.8-16.4,12.2-23.4c1.6-3.5-1.4-6.1-3.6-1.6 c-3.4,7-7.4,12.6-11.7,18.5c-1.7,2.8-2.5,1.9-0.9-2.1c2.8-8.1,4.8-16,7.2-24.2c0.6-2.1,0.2-3.6-0.6-4.1l0,0c0,0,0,0,0,0 c0,0-0.1,0-0.1-0.1c0,0,0,0-0.1,0c0,0-0.1,0-0.1,0c0,0,0,0-0.1,0c0,0-0.1,0-0.1,0c0,0,0,0-0.1,0c0,0-0.1,0-0.1,0c0,0,0,0-0.1,0 c-0.1,0-0.1,0-0.2,0c0,0,0,0-0.1,0c-0.1,0-0.3,0.1-0.4,0.2c0,0,0,0-0.1,0c-0.1,0-0.1,0.1-0.2,0.1c0,0-0.1,0-0.1,0.1 c0,0-0.1,0.1-0.1,0.1c0,0-0.1,0.1-0.1,0.1c0,0-0.1,0.1-0.1,0.1c0,0-0.1,0.1-0.1,0.1c0,0.1-0.1,0.1-0.1,0.2c0,0-0.1,0.1-0.1,0.1 c0,0.1-0.1,0.1-0.1,0.2c0,0-0.1,0.1-0.1,0.1c0,0.1-0.1,0.1-0.1,0.2c0,0.1-0.1,0.1-0.1,0.2c0,0.1-0.1,0.2-0.1,0.2 c0,0.1-0.1,0.1-0.1,0.2c0,0.1-0.1,0.2-0.1,0.3c0,0,0,0.1-0.1,0.1c-0.1,0.2-0.1,0.3-0.2,0.5c-2.7,7.8-4.3,12.7-9.4,23.5 c-1.5,2.9-3.3,4-3.4,0.4c-0.9-8.2,0.2-13.9-0.5-19.7c-0.2-5.1-3.1-4.4-3.3-0.1c-0.4,8.4-1.1,16.6-2.9,24.4 c-1.4,6.1-6.1,7-10.6,4.1c-2.8-2-5.2-4.3-7.2-6.8c-2.3-2.8-4.8-0.4-2.2,5.6c3,6,6.3,10.6,8,14.5c2.2,5.4,4.4,8.4,8.1,10.3 c0.3,0.2,0.6,0.4,0.9,0.6c0.1,0,0.2,0.1,0.2,0.1c0.3,0.2,0.6,0.3,0.9,0.5c0,0,0.1,0,0.1,0.1c0.3,0.1,0.5,0.2,0.7,0.3 c0.1,0,0.2,0.1,0.3,0.1c0.2,0.1,0.5,0.2,0.7,0.3c0.1,0,0.2,0.1,0.3,0.1c0.2,0.1,0.4,0.1,0.6,0.2c0.1,0,0.2,0.1,0.3,0.1 c0,0,0.1,0,0.1,0l0,0c8,1.7,13-6.9,17.8-12.6c5-5.8,10-10.1,13.4-15.2C1075.5,290.6,1072.7,289.6,1070.9,291.5z"/>
        <path class="st3" d="M1035.7,443.2c-4.7,0.7-9.6,0.5-14.7-0.1c-7.9-1.5-12-7.3-7.1-15.3c6.1-10.1,13.9-19.7,22.1-29.1 c4.3-4.8,1.9-8.5-3.6-3.3c-6.7,5.5-11.3,12.7-20.8,20.5c-3.8,3.8-4.7,0.8-3.2-3.9c5.6-16.8,9-23.7,14.1-34.7 c0.1-0.2,0.2-0.5,0.3-0.7c0-0.1,0.1-0.1,0.1-0.2c0.1-0.2,0.1-0.3,0.2-0.5c0-0.1,0.1-0.2,0.1-0.3c0-0.1,0.1-0.3,0.1-0.4 c0-0.1,0-0.2,0.1-0.3c0-0.1,0.1-0.2,0.1-0.4c0-0.1,0-0.2,0-0.2c0-0.1,0-0.2,0.1-0.3c0-0.1,0-0.2,0-0.2c0-0.1,0-0.2,0-0.3 c0-0.1,0-0.1,0-0.2c0-0.1,0-0.2,0-0.3c0-0.1,0-0.1,0-0.2c0-0.1,0-0.2,0-0.3c0-0.1,0-0.1,0-0.2c0-0.1,0-0.2-0.1-0.3 c0,0,0-0.1,0-0.1c-0.1-0.2-0.2-0.5-0.3-0.7c0,0,0,0,0-0.1c0-0.1-0.1-0.1-0.1-0.2c0,0,0,0-0.1-0.1c0-0.1-0.1-0.1-0.1-0.1 c0,0-0.1,0-0.1-0.1c-0.1,0-0.1-0.1-0.2-0.1c0,0-0.1,0-0.1-0.1c-0.1,0-0.1-0.1-0.2-0.1c0,0-0.1,0-0.1,0c-0.1,0-0.1,0-0.2,0 c0,0,0,0-0.1,0l0,0c-1.4-0.2-3.3,1-4.9,3.8c-5.9,11.3-11.9,21.8-17.2,33.3c-2.5,5.9-4.3,6.1-3.2,1.3c1.4-10.8,2.9-20.8,6.5-31.8 c2.2-7.1-3.6-7.4-5.5-2c-4.6,9.9-6.9,23.8-11.1,37.5c-0.8,3-2.7,2.4-3-0.2l-0.9-15.2c0-4-4.1-5.7-5.6-0.4 c-1.6,8.9-0.8,18.7-1.4,30c-0.9,11.8-4.8,27.5,8.5,33.1c0,0,0.1,0,0.1,0c0.3,0.1,0.5,0.2,0.8,0.3c0,0,0.1,0,0.1,0.1 c0.6,0.2,1.2,0.4,1.9,0.6c0.1,0,0.2,0,0.3,0.1c0.2,0.1,0.5,0.1,0.8,0.2c0.1,0,0.2,0,0.3,0.1c0.4,0.1,0.7,0.1,1.1,0.2 c6,1.8,11.3,0.9,19.3-2.6c5.8-2.4,14.1-4,23.5-7.2C1041.2,447.6,1041.1,442.5,1035.7,443.2z"/>
        <path class="st4" d="M1102.1,402.9C1102.2,402.8,1102.2,402.8,1102.1,402.9c0.1-0.1,0.2-0.2,0.2-0.3c0,0,0,0,0-0.1 c0.1-0.2,0.2-0.3,0.2-0.5c0,0,0,0,0-0.1c0-0.1,0-0.1,0-0.2c0,0,0,0,0-0.1c0-0.1,0-0.1,0-0.2c0,0,0-0.1,0-0.1c0,0,0-0.1,0-0.1 c0,0,0-0.1,0-0.1c0,0,0-0.1,0-0.1c0,0,0,0,0-0.1c0,0,0-0.1-0.1-0.1c0,0,0,0,0,0l0,0c-0.6-0.8-2.2-1.3-4.5-0.7 c-9.1,2.5-17.7,4.5-26.6,7.4c-4.4,1.6-5.4,0.7-2.3-1.1c6.5-4.6,12.7-8.9,20.4-12.4c4.9-2.3,2.2-5.7-1.7-4 c-7.6,2.5-16.3,8.2-25.8,12.8c-2,1.1-2.6-0.3-1.4-1.7l7.8-8.1c2.1-2,1.1-5.1-2.6-3.2c-5.6,3.6-10.5,8.9-16.9,14.3 c-6.4,5.1-15.9,10.4-14.2,19.1l0,0c0,0,0,0.1,0,0.1c0,0.1,0.1,0.2,0.1,0.3c0,0.2,0.1,0.4,0.2,0.6c0,0.1,0.1,0.2,0.1,0.3 c0.1,0.3,0.2,0.5,0.3,0.8c0,0.1,0.1,0.2,0.1,0.3c0.1,0.3,0.2,0.5,0.4,0.8c0,0,0,0.1,0.1,0.1c0.2,0.3,0.3,0.6,0.5,1 c0,0.1,0.1,0.2,0.1,0.3c0.2,0.3,0.4,0.7,0.6,1c2,4.1,5.2,6.5,11,9.1c4.2,2,9.2,5.6,15.7,9.1c6.5,2.9,9.2,0.3,6.2-2.3 c-2.7-2.2-5.1-4.9-7.3-8c-3.1-5-2.1-10.1,4.7-11.5c8.5-1.7,17.6-2.3,26.8-2.6c4.8-0.1,5.5-3.2,0-3.6c-6.3-0.8-12.6,0.2-21.5-1 c-4-0.2-2.8-2.1,0.5-3.7c11.9-5.4,17.3-7,25.8-9.7c0.2-0.1,0.4-0.1,0.5-0.2c0.1,0,0.1,0,0.2-0.1c0.1,0,0.2-0.1,0.3-0.1 c0.1,0,0.1-0.1,0.2-0.1c0.1,0,0.2-0.1,0.3-0.1c0.1,0,0.1-0.1,0.2-0.1c0.1,0,0.2-0.1,0.2-0.1c0.1,0,0.1-0.1,0.1-0.1 c0.1,0,0.1-0.1,0.2-0.1c0,0,0.1-0.1,0.1-0.1c0.1,0,0.1-0.1,0.2-0.1c0,0,0.1-0.1,0.1-0.1c0.1,0,0.1-0.1,0.2-0.1 c0,0,0.1-0.1,0.1-0.1C1102.1,403,1102.1,402.9,1102.1,402.9z"/>
        <path class="st2" d="M1070.8,490.7c3.8,0.7,6.2,2,8.9,2.5c2.3,0.6,2.4-0.8,0.5-1.5c-3.7-1.3-7.3-2.8-10.6-4.7 c-2.6-1.5-2.3-3.7-0.4-5.3c1.3-1,2.6-1.8,4-2.3c1.6-0.6,0.8-2.1-2.2-1.8c-3.1,0.5-5.6,1.4-7.6,1.6c-2.7,0.3-4.4,0.8-5.7,2.2 c-0.2,0.1-0.4,0.3-0.5,0.4c0,0-0.1,0.1-0.1,0.1c-0.1,0.1-0.2,0.2-0.3,0.3c0,0-0.1,0.1-0.1,0.1c-0.3,0.3-0.5,0.6-0.7,0.9 c0,0,0,0,0,0l0,0c-1.9,3.3,1.3,6.8,3.2,9.7c1.9,3,3.2,5.9,5,8.1c1.2,1.2,2.1,0.1,1.5-1l-2.1-4.3c-0.3-0.8,0.1-1.2,0.8-0.5 c3.2,3.2,6,6.6,8.8,8.7c1.4,1.2,2.9,0.2,1.2-1.4c-2.7-2.5-4.6-5-6.7-7.8c-1-1.2-0.5-1.4,1.1-0.1c3.2,2.4,6.5,4.4,9.9,6.6 c0.9,0.5,1.6,0.6,1.9,0.3l0,0c0,0,0,0,0,0c0,0,0.1-0.1,0.1-0.1c0,0,0,0,0-0.1c0,0,0-0.1,0-0.1c0,0,0-0.1,0-0.1c0,0,0-0.1,0-0.1 c0,0,0-0.1,0-0.1c0,0,0-0.1,0-0.1c0,0,0-0.1,0-0.1c0,0,0-0.1-0.1-0.2c0,0,0-0.1-0.1-0.1c0-0.1-0.1-0.1-0.1-0.2 c0,0-0.1-0.1-0.1-0.1c-0.1-0.1-0.1-0.1-0.2-0.2c0,0-0.1-0.1-0.1-0.1c-0.1-0.1-0.2-0.2-0.4-0.3c-3.1-2.3-5.1-3.7-9.2-7.4 C1069.4,491.2,1069.2,490.2,1070.8,490.7z"/>
        <path class="st1" d="M1144,458.3c0.1,0,0.1,0,0.2,0c0.1,0,0.2,0,0.3,0c0.1,0,0.1,0,0.2,0c0.1,0,0.2,0,0.3,0c0.1,0,0.1,0,0.2,0 c0.1,0,0.2,0,0.2-0.1c0.1,0,0.1,0,0.2,0c0.1,0,0.1,0,0.2-0.1c0,0,0.1,0,0.1-0.1c0.1,0,0.1-0.1,0.2-0.1c0,0,0.1,0,0.1-0.1 c0.1,0,0.1-0.1,0.2-0.1c0,0,0.1,0,0.1-0.1c0.1,0,0.1-0.1,0.2-0.1c0,0,0,0,0.1,0c0.1-0.1,0.3-0.2,0.3-0.4c0,0,0,0,0,0 c0,0,0.1-0.1,0.1-0.1c0,0,0,0,0-0.1c0,0,0-0.1,0.1-0.1c0,0,0,0,0-0.1c0,0,0-0.1,0-0.1c0,0,0,0,0-0.1c0,0,0-0.1,0-0.1 c0,0,0,0,0-0.1c0,0,0-0.1,0-0.1c0,0,0,0,0,0l0,0c-0.2-0.9-1.5-1.8-3.8-2.1c-8.9-0.7-17.2-1.6-26.1-1.9c-4.5,0-5.1-1.1-1.7-1.7 c7.3-2.1,14.1-3.9,22.2-4.6c5.1-0.5,3.8-4.4-0.2-4.1c-7.6-0.2-17.2,2.1-27.1,3.2c-2.2,0.3-2.3-1.1-0.7-2l9.5-4.7 c2.5-1.1,2.6-4.2-1.3-3.7c-6.1,1.4-12.2,4.6-19.6,7.4c-7.3,2.5-17.5,4.2-18.7,12.6l0,0c0,0,0,0.1,0,0.1c0,0.1,0,0.2,0,0.3 c0,0.2,0,0.4-0.1,0.6c0,0.1,0,0.2,0,0.3c0,0.3,0,0.5,0,0.8c0,0.1,0,0.2,0,0.3c0,0.3,0,0.6,0.1,0.9c0,0,0,0.1,0,0.1 c0,0.3,0.1,0.7,0.2,1c0,0.1,0,0.2,0,0.3c0.1,0.4,0.1,0.7,0.2,1.1c0.5,4.3,2.6,7.5,7,11.6c3.1,3.1,6.4,7.9,11.1,13.1 c4.9,4.7,8.2,3.2,6.3-0.1c-1.7-2.8-3-6-3.9-9.4c-1.2-5.5,1.4-9.7,7.8-8.8c8.2,1.2,16.5,3.5,24.7,6.2c4.3,1.4,6-1.1,1.1-3.2 c-5.4-2.7-11.3-3.8-18.9-7.7c-3.5-1.4-1.8-2.8,1.6-3.1c12.3-1,17.7-0.8,26.2-0.5c0.2,0,0.4,0,0.5,0c0.1,0,0.1,0,0.2,0 C1143.8,458.3,1143.9,458.3,1144,458.3z"/>
        <path class="st2" d="M967.6,352.4l-3.2,13c-0.7,2.2-2.4,2.4-2.6-0.3c-1.3-12.5-1.1-24.9-3.4-34.2c-0.8-5-5.9-5.6-5.1,0.8 c1.3,10.1,0.9,19,0.4,28.5c0.1,4.3-1.3,3.8-2.5-1.7c-2.7-10.8-6.1-20.8-9.4-31.6c-0.9-2.7-2.4-4.1-3.6-4.1l0,0c0,0,0,0-0.1,0 c-0.1,0-0.1,0-0.2,0c0,0-0.1,0-0.1,0c-0.1,0-0.1,0-0.2,0c0,0-0.1,0-0.1,0c-0.1,0-0.1,0-0.2,0.1c0,0-0.1,0-0.1,0 c-0.1,0-0.1,0.1-0.2,0.1c0,0,0,0-0.1,0.1c-0.1,0-0.1,0.1-0.2,0.1c0,0,0,0-0.1,0.1c-0.1,0.1-0.2,0.3-0.3,0.5c0,0,0,0.1,0,0.1 c0,0.1-0.1,0.2-0.1,0.2c0,0,0,0.1,0,0.1c0,0.1,0,0.2-0.1,0.2c0,0.1,0,0.1,0,0.2c0,0.1,0,0.2,0,0.2c0,0.1,0,0.1,0,0.2 c0,0.1,0,0.2,0,0.3c0,0.1,0,0.1,0,0.2c0,0.1,0,0.2,0,0.3c0,0.1,0,0.1,0,0.2c0,0.1,0,0.2,0,0.3c0,0.1,0,0.1,0,0.2 c0,0.1,0,0.2,0,0.4c0,0.1,0,0.1,0,0.2c0,0.1,0,0.3,0.1,0.4c0,0.1,0,0.1,0,0.2c0,0.2,0.1,0.4,0.1,0.7c2.6,10.4,4.4,16.9,6.5,32.3 c0.5,4.3-0.8,6.7-3.4,2.8c-6.9-8.3-9.7-15.2-14.6-21.1c-3.8-5.4-6.6-2.6-3.6,2.3c5.5,9.4,10.6,19,14.3,28.7 c2.8,7.7-1.6,12-8.7,12c-4.5-0.3-8.8-0.9-12.7-2.3c-4.5-1.4-5.5,3,1.6,7.7c7.6,4.3,14.5,7.1,19.1,10.1c6.3,4.3,10.8,6,16.2,5.4 c0.5,0,1,0,1.4,0c0.1,0,0.2,0,0.3,0c0.4,0,0.9,0,1.3-0.1c0,0,0.1,0,0.1,0c0.4,0,0.7-0.1,1.1-0.2c0.1,0,0.2,0,0.4-0.1 c0.3-0.1,0.7-0.1,1-0.2c0.1,0,0.2-0.1,0.3-0.1c0.3-0.1,0.5-0.2,0.8-0.2c0.1,0,0.3-0.1,0.4-0.1c0.1,0,0.1,0,0.2-0.1l0,0 c9.9-3.8,9.3-16.8,10.4-26.5c1.4-9.9,3.7-18.2,3.7-26.1C972.1,348.1,968.3,349,967.6,352.4z"/>
        <path class="st1" d="M1080,342.9c-4.9,2.9-8.7,7-15.6,11.1c-2.9,2-3.1,0-1.7-2.8c5.4-10.3,8.3-14.4,12.8-20.9 c0.1-0.1,0.2-0.3,0.3-0.4c0,0,0-0.1,0.1-0.1c0.1-0.1,0.1-0.2,0.2-0.3c0-0.1,0-0.1,0.1-0.2c0-0.1,0.1-0.2,0.1-0.2 c0-0.1,0-0.1,0.1-0.2c0-0.1,0.1-0.1,0.1-0.2c0-0.1,0-0.1,0.1-0.2c0-0.1,0-0.1,0.1-0.2c0,0,0-0.1,0-0.1c0-0.1,0-0.1,0-0.2 c0,0,0-0.1,0-0.1c0-0.1,0-0.1,0-0.2c0,0,0-0.1,0-0.1c0-0.1,0-0.1,0-0.2c0,0,0-0.1,0-0.1c0-0.1,0-0.1,0-0.2c0,0,0-0.1,0-0.1 c0-0.1,0-0.2,0-0.2c0,0,0,0,0,0c0-0.1,0-0.1-0.1-0.2c0,0,0,0,0-0.1c0,0,0-0.1-0.1-0.1c0,0,0,0,0-0.1c0,0,0-0.1-0.1-0.1 c0,0,0,0,0-0.1c0,0-0.1-0.1-0.1-0.1c0,0,0,0-0.1,0c0,0-0.1,0-0.1-0.1c0,0,0,0-0.1,0c0,0-0.1,0-0.1-0.1c0,0,0,0,0,0l0,0 c-0.9-0.3-2.2,0.3-3.5,1.9c-5,6.7-9.9,12.8-14.6,19.7c-2.2,3.5-3.4,3.5-2.2,0.5c2-6.8,4.1-13.1,7.5-19.8c2.2-4.3-1.6-5.2-3.4-1.9 c-4,5.9-7,14.6-11.1,23c-0.8,1.9-2,1.3-1.9-0.5l1-9.9c0.4-2.6-2-4.1-3.6-0.8c-2,5.6-2.5,12-4,19.2c-1.7,7-5.5,16,0.5,21.2l0,0 c0,0,0.1,0,0.1,0.1c0.1,0.1,0.2,0.1,0.2,0.2c0.2,0.1,0.3,0.2,0.5,0.4c0.1,0,0.1,0.1,0.2,0.1c0.2,0.1,0.4,0.3,0.6,0.4 c0.1,0,0.2,0.1,0.3,0.1c0.2,0.1,0.5,0.3,0.7,0.4c0,0,0.1,0,0.1,0.1c0.3,0.1,0.6,0.3,0.9,0.4c0.1,0,0.2,0.1,0.2,0.1 c0.3,0.1,0.6,0.2,1,0.4c3.7,1.8,7.2,1.7,12.7,0.3c4-0.9,9.5-1.1,15.9-2.2c6.1-1.5,6.6-4.9,3.1-5c-3.1,0-6.2-0.7-9.4-1.6 c-4.9-1.8-7-5.9-3-10.6c5-5.9,11.1-11.3,17.3-16.4C1085.2,342.8,1084,340.1,1080,342.9z"/>
        <path class="st4" d="M1030.3,338.1c-2.9,1.9-6.2,3.3-9.8,4.4c-5.7,1.4-10.2-1.2-9.5-8c1-8.7,3.2-17.5,5.8-26.2 c1.4-4.6-1.4-6.3-3.4-1.1c-2.7,5.8-3.7,12-7.6,20.1c-1.4,3.7-2.9,2-3.4-1.6c-1.4-13-1.3-18.6-1.3-27.6c0-0.2,0-0.4,0-0.6 c0-0.1,0-0.1,0-0.2c0-0.1,0-0.2,0-0.4c0-0.1,0-0.1,0-0.2c0-0.1,0-0.2,0-0.3c0-0.1,0-0.1,0-0.2c0-0.1,0-0.2-0.1-0.3 c0-0.1,0-0.1,0-0.2c0-0.1,0-0.2-0.1-0.2c0-0.1,0-0.1-0.1-0.2c0-0.1,0-0.1-0.1-0.2c0,0,0-0.1-0.1-0.1c0-0.1-0.1-0.1-0.1-0.2 c0,0,0-0.1-0.1-0.1c0-0.1-0.1-0.1-0.1-0.2c0,0,0-0.1-0.1-0.1c0-0.1-0.1-0.1-0.1-0.2c0,0,0,0,0-0.1c-0.1-0.1-0.3-0.3-0.4-0.4 c0,0,0,0-0.1,0c0,0-0.1-0.1-0.1-0.1c0,0,0,0-0.1,0c0,0-0.1,0-0.1-0.1c0,0,0,0-0.1,0c0,0-0.1,0-0.1,0c0,0-0.1,0-0.1,0 c0,0-0.1,0-0.1,0c0,0-0.1,0-0.1,0c0,0-0.1,0-0.1,0c0,0,0,0,0,0v0c-1,0.3-1.9,1.7-2.1,4c-0.5,9.4-1.2,18.2-1.2,27.6 c0.1,4.7-1,5.4-1.7,1.9c-2.4-7.6-4.5-14.8-5.5-23.3c-0.7-5.4-4.7-3.8-4.3,0.4c0,8,2.7,18,4.2,28.5c0.4,2.3-1.1,2.4-2.1,0.8 l-5.3-9.9c-1.2-2.6-4.5-2.6-3.9,1.5c1.7,6.4,5.2,12.7,8.3,20.5c2.9,7.6,5,18.3,13.8,19.4v0c0,0,0.1,0,0.1,0c0.1,0,0.2,0,0.3,0 c0.2,0,0.4,0,0.7,0c0.1,0,0.2,0,0.3,0c0.3,0,0.6,0,0.9,0c0.1,0,0.2,0,0.3,0c0.3,0,0.6-0.1,0.9-0.1c0,0,0.1,0,0.1,0 c0.3,0,0.7-0.1,1.1-0.2c0.1,0,0.2,0,0.3-0.1c0.4-0.1,0.8-0.2,1.1-0.3c4.5-0.6,7.8-2.9,12.1-7.7c3.2-3.4,8.2-7,13.5-12.1 C1035.3,339.4,1033.7,336,1030.3,338.1z"/>
        <path class="st5" d="M897.1,420.1c0.1,0,0.1-0.1,0.2-0.1c0.5-0.3,1-0.6,1.5-0.9c0,0,0.1,0,0.1-0.1c0.2-0.1,0.4-0.3,0.6-0.5 c0,0,0,0,0.1-0.1c9.8-7.8,2.7-19.9-0.9-29.5c-3.2-9.3-4.9-17.6-8.3-24.6c-2.6-4.1-5.5-1.7-4.6,1.7l3,12.9c0.4,2.2-1,3.2-2.4,0.9 c-6.7-10.4-12-21.4-18.2-28.5c-2.9-4-7.7-2.3-4.1,3c5.6,8.3,9.3,16.3,13,24.9c2,3.7,0.5,4-3-0.3c-7.2-8.3-14.7-15.6-22.3-23.6 c-2-2-3.9-2.5-5-2l0,0c0,0,0,0,0,0c-0.1,0-0.1,0.1-0.1,0.1c0,0,0,0-0.1,0.1c0,0-0.1,0.1-0.1,0.1c0,0,0,0-0.1,0.1 c0,0-0.1,0.1-0.1,0.1c0,0,0,0-0.1,0.1c0,0-0.1,0.1-0.1,0.2c0,0,0,0,0,0.1c0,0.1,0,0.1-0.1,0.2c0,0,0,0,0,0.1 c0,0.2-0.1,0.4-0.1,0.6c0,0,0,0.1,0,0.1c0,0.1,0,0.2,0,0.3c0,0,0,0.1,0,0.1c0,0.1,0,0.2,0,0.2c0,0,0,0.1,0,0.1 c0,0.1,0,0.2,0.1,0.2c0,0.1,0,0.1,0.1,0.2c0,0.1,0.1,0.2,0.1,0.3c0,0.1,0,0.1,0.1,0.2c0,0.1,0.1,0.2,0.1,0.3 c0,0.1,0.1,0.1,0.1,0.2c0,0.1,0.1,0.2,0.2,0.3c0,0.1,0.1,0.1,0.1,0.2c0.1,0.1,0.1,0.2,0.2,0.3c0,0.1,0.1,0.1,0.1,0.2 c0.1,0.1,0.2,0.2,0.2,0.3c0,0.1,0.1,0.1,0.1,0.2c0.1,0.2,0.3,0.3,0.4,0.5c6.9,7.9,11.4,12.9,20.1,25.5c2.3,3.5,2.3,6.2-1.8,4 c-9.7-4.2-15.3-9.1-22.2-12.1c-5.8-3-6.9,0.6-2.2,3.6c9,5.8,17.8,11.9,25.4,18.9c5.9,5.5,3.9,11.3-2.3,14.4 c-4.1,1.8-8.1,3.1-12.2,3.6c-4.6,0.8-3.5,5,4.8,6.1c8.6,0.4,15.9-0.2,21.3,0.4c7.4,1,12.1,0.4,16.7-2.5c0.3-0.1,0.6-0.3,0.8-0.4 c0.1,0,0.2-0.1,0.2-0.1C896.7,420.4,896.9,420.2,897.1,420.1z"/>
        <path class="st3" d="M917.5,321.2c-1.6,2.8-3.7,5.4-6.1,7.9c-4.1,3.6-8.9,3.5-11.3-2.4c-3-7.5-4.9-15.7-6.7-24 c-0.8-4.3-3.8-4.5-3.3,0.6c0.3,5.9,2.2,11.4,2.6,19.8c0.5,3.6-1.5,2.9-3.4,0.2c-6.8-10-9.2-14.7-13-22.1 c-0.1-0.2-0.2-0.3-0.3-0.5c0,0-0.1-0.1-0.1-0.1c-0.1-0.1-0.1-0.2-0.2-0.3c0-0.1-0.1-0.1-0.1-0.1c-0.1-0.1-0.1-0.2-0.2-0.2 c0,0-0.1-0.1-0.1-0.1c-0.1-0.1-0.1-0.1-0.2-0.2c0,0-0.1-0.1-0.1-0.1c-0.1-0.1-0.1-0.1-0.2-0.2c0,0-0.1-0.1-0.1-0.1 c-0.1,0-0.1-0.1-0.2-0.1c0,0-0.1-0.1-0.1-0.1c-0.1,0-0.1-0.1-0.2-0.1c0,0-0.1-0.1-0.1-0.1c-0.1,0-0.1-0.1-0.2-0.1 c0,0-0.1,0-0.1-0.1c-0.1,0-0.1-0.1-0.2-0.1c0,0,0,0-0.1,0c-0.2-0.1-0.3-0.1-0.5-0.1c0,0,0,0-0.1,0c-0.1,0-0.1,0-0.2,0 c0,0,0,0-0.1,0c0,0-0.1,0-0.1,0c0,0,0,0-0.1,0c0,0-0.1,0-0.1,0c0,0,0,0-0.1,0c0,0-0.1,0-0.1,0.1c0,0,0,0-0.1,0 c0,0-0.1,0.1-0.1,0.1c0,0,0,0,0,0l0,0c-0.7,0.6-0.8,2.2,0,4.2c3.7,7.9,6.9,15.5,11,23.1c2.2,3.8,1.6,4.8-0.6,2.3 c-5.3-5.2-10.1-10.2-14.6-16.7c-2.9-4.1-5.5-1.1-3.4,2.2c3.5,6.6,10.1,13.6,15.8,21.5c1.3,1.7,0.2,2.4-1.4,1.5l-8.6-5.8 c-2.2-1.6-4.8-0.2-2.5,2.9c4.2,4.5,9.8,8.1,15.7,13.1c5.7,5,12,12.9,19.8,9.9l0,0c0,0,0.1,0,0.1,0c0.1,0,0.2-0.1,0.3-0.1 c0.2-0.1,0.4-0.2,0.6-0.3c0.1,0,0.2-0.1,0.2-0.1c0.2-0.1,0.5-0.3,0.7-0.4c0.1-0.1,0.2-0.1,0.3-0.2c0.2-0.1,0.5-0.3,0.7-0.5 c0,0,0.1,0,0.1-0.1c0.3-0.2,0.5-0.4,0.8-0.6c0.1-0.1,0.1-0.1,0.2-0.2c0.3-0.2,0.5-0.5,0.8-0.7c3.4-2.5,5.2-5.8,6.6-11.6 c1.1-4.1,3.7-9.3,5.8-15.8C922.2,320,919.4,318,917.5,321.2z"/>
        <path class="st5" d="M968,275.2l-3.5,10.2c-0.7,1.7-2.1,1.8-2.1-0.4c-0.1-10.1,1-20-0.2-27.6c-0.2-4-4.3-4.9-4.1,0.3 c0.3,8.1-0.6,15.3-1.8,22.8c-0.2,3.4-1.3,3-1.9-1.5c-1.4-8.9-3.4-17.1-5.2-25.9c-0.5-2.2-1.6-3.4-2.6-3.5l0,0c-0.1,0-0.2,0-0.3,0 c0,0,0,0-0.1,0c-0.1,0-0.2,0.1-0.3,0.1c0,0,0,0-0.1,0c-0.1,0.1-0.2,0.1-0.3,0.2c0,0,0,0,0,0c-0.1,0.1-0.2,0.2-0.3,0.3 c0,0,0,0,0,0c-0.1,0.1-0.2,0.3-0.2,0.4c0,0,0,0,0,0.1c-0.1,0.2-0.1,0.3-0.2,0.5c0,0,0,0.1,0,0.1c0,0.2-0.1,0.4-0.1,0.6 c0,0,0,0.1,0,0.1c0,0.2,0,0.5,0,0.8c0,0,0,0.1,0,0.1c0,0.3,0,0.6,0.1,0.9c1.4,8.5,2.3,13.8,2.9,26.3c0.1,3.4-1.1,5.3-3,2 c-4.9-7.1-6.7-12.9-10.1-18c-2.7-4.6-5.1-2.6-3.1,1.6c3.7,7.9,7.1,15.9,9.4,24c1.7,6.4-2.2,9.5-7.8,9c-3.6-0.5-6.9-1.4-10-2.8 c-3.5-1.5-4.6,2,0.7,6.3c5.8,4,11.1,6.7,14.6,9.5c4.7,3.9,8.2,5.6,12.6,5.5c0.4,0,0.8,0.1,1.1,0.1c0.1,0,0.2,0,0.3,0 c0.4,0,0.7,0,1,0c0,0,0.1,0,0.1,0c0.3,0,0.6,0,0.9,0c0.1,0,0.2,0,0.3,0c0.3,0,0.5-0.1,0.8-0.1c0.1,0,0.2,0,0.3-0.1 c0.2,0,0.4-0.1,0.6-0.1c0.1,0,0.2-0.1,0.3-0.1c0,0,0.1,0,0.1,0l0,0c8.2-2.3,8.6-12.8,10.2-20.4c1.8-7.8,4.2-14.3,4.9-20.6 C971.9,272.1,968.8,272.6,968,275.2z"/>
        <path class="st3" d="M887.7,521.2L887.7,521.2C887.7,521.1,887.6,521.1,887.7,521.2c-0.2-0.2-0.2-0.2-0.3-0.3 c-0.1-0.1-0.3-0.3-0.5-0.4c-0.1-0.1-0.1-0.1-0.2-0.2c-0.2-0.2-0.4-0.3-0.6-0.5c-0.1-0.1-0.2-0.1-0.2-0.2 c-0.2-0.2-0.5-0.3-0.7-0.5c0,0-0.1,0-0.1-0.1c-0.3-0.2-0.6-0.3-0.9-0.5c-0.1,0-0.2-0.1-0.2-0.1c-0.3-0.2-0.7-0.3-1-0.5 c-3.7-2.3-7.6-2.7-13.6-1.7c-4.4,0.5-10.3,0.1-17.3,0.6c-6.8,1-7.6,4.5-3.8,5c3.3,0.4,6.6,1.4,10,2.8c5.1,2.5,6.8,7.1,2.1,11.7 c-6,5.8-13.1,10.9-20.3,15.8c-3.8,2.5-2.8,5.4,1.8,2.9c5.5-2.6,10.1-6.6,17.9-10.2c3.3-1.9,3.3,0.3,1.5,3.2 c-6.9,10.4-10.5,14.5-16,21.1c-0.1,0.1-0.2,0.3-0.3,0.4c0,0-0.1,0.1-0.1,0.1c-0.1,0.1-0.1,0.2-0.2,0.3c0,0.1-0.1,0.1-0.1,0.2 c-0.1,0.1-0.1,0.2-0.2,0.2c0,0.1-0.1,0.1-0.1,0.2c0,0.1-0.1,0.2-0.1,0.2c0,0.1-0.1,0.1-0.1,0.2c0,0.1-0.1,0.1-0.1,0.2 c0,0,0,0.1-0.1,0.1c0,0.1-0.1,0.1-0.1,0.2c0,0,0,0.1,0,0.1c0,0.1,0,0.1-0.1,0.2c0,0,0,0.1,0,0.1c0,0.1,0,0.1,0,0.2 c0,0,0,0.1,0,0.1c0,0.1,0,0.1,0,0.2c0,0,0,0,0,0.1c0,0.2,0,0.3,0.1,0.5c0,0,0,0,0,0.1c0,0.1,0,0.1,0.1,0.2c0,0,0,0,0,0.1 c0,0,0,0.1,0.1,0.1c0,0,0,0,0,0.1c0,0,0.1,0.1,0.1,0.1c0,0,0,0,0.1,0c0,0,0.1,0.1,0.1,0.1c0,0,0,0,0.1,0c0,0,0.1,0,0.1,0.1 c0,0,0,0,0,0l0,0c0.9,0.4,2.4,0,4-1.7c6.1-6.6,12.1-12.7,17.8-19.5c2.8-3.6,4-3.4,2.4-0.3c-2.9,7.1-5.8,13.6-10.2,20.5 c-2.8,4.4,1.1,5.7,3.4,2.4c4.9-5.9,9.1-14.9,14.4-23.5c1.1-1.9,2.3-1.1,2,0.7l-2.2,10.5c-0.7,2.7,1.7,4.7,3.7,1.3 c2.7-5.7,3.9-12.6,6.4-20.2C888.5,536.5,893.6,527.4,887.7,521.2z"/>
        <path class="st2" d="M842.1,420.3c0,0,0-0.1,0.1-0.1c0.2-0.3,0.3-0.6,0.5-0.9c0.1-0.1,0.1-0.2,0.2-0.3c0.1-0.3,0.3-0.6,0.4-0.8 c0-0.1,0.1-0.2,0.1-0.3c0.1-0.2,0.2-0.4,0.2-0.7c0-0.1,0.1-0.2,0.1-0.4c0,0,0-0.1,0-0.1l0,0c2.6-9.3-7.2-15.8-13.6-21.8 c-6.4-6.3-11.2-12.5-16.9-16.8c-3.8-2.3-5.2,0.9-3.1,3.2l7.7,9.4c1.2,1.7,0.5,3.1-1.6,1.7c-9.8-5.8-18.6-12.7-26.6-16 c-4-2.1-7.2,1.2-2.2,4.1c8,4.5,14.3,9.6,20.9,15.1c3.2,2.2,2.1,3-2.6,1c-9.3-3.9-18.4-6.8-27.9-10.2c-2.5-0.8-4.2-0.5-4.9,0.4 l0,0c0,0,0,0,0,0c0,0-0.1,0.1-0.1,0.1c0,0,0,0,0,0.1c0,0,0,0.1-0.1,0.1c0,0,0,0,0,0.1c0,0.1,0,0.1,0,0.2c0,0,0,0.1,0,0.1 c0,0.1,0,0.1,0,0.2c0,0,0,0,0,0.1c0,0.1,0,0.1,0,0.2c0,0,0,0,0,0.1c0,0.2,0.1,0.4,0.2,0.5c0,0,0,0,0,0.1c0,0.1,0.1,0.1,0.1,0.2 c0,0,0,0.1,0.1,0.1c0,0.1,0.1,0.1,0.1,0.2c0,0,0.1,0.1,0.1,0.1c0,0.1,0.1,0.1,0.2,0.2c0,0,0.1,0.1,0.1,0.1 c0.1,0.1,0.1,0.1,0.2,0.2c0,0,0.1,0.1,0.1,0.1c0.1,0.1,0.1,0.1,0.2,0.2c0.1,0,0.1,0.1,0.2,0.1c0.1,0.1,0.2,0.1,0.2,0.2 c0.1,0,0.1,0.1,0.2,0.1c0.1,0.1,0.2,0.1,0.3,0.2c0.1,0,0.1,0.1,0.2,0.1c0.1,0.1,0.2,0.1,0.3,0.2c0.1,0,0.1,0.1,0.2,0.1 c0.2,0.1,0.4,0.2,0.6,0.3c8.9,3.7,14.6,5.9,26.9,12.7c3.3,2,4.4,4.2,0.2,4c-9.7,0.5-16.3-1.2-23.2-0.8c-6-0.1-5.4,3.3-0.3,3.8 c9.8,1.1,19.5,2.5,28.5,5.1c7.1,2.1,7.8,7.6,4,12.8c-2.6,3.1-5.4,5.8-8.5,8c-3.5,2.5-0.8,5.6,6.5,3c7.2-3.2,13-6.7,17.6-8.4 c6.5-2.2,10.1-4.6,12.7-8.8c0.3-0.3,0.5-0.7,0.8-1c0.1-0.1,0.1-0.2,0.2-0.3C841.7,421,841.9,420.7,842.1,420.3z"/>
        <path class="st5" d="M841.6,511.2c-0.1-0.4-0.2-0.7-0.3-1c0-0.1-0.1-0.2-0.1-0.3c-0.1-0.3-0.2-0.6-0.3-0.9c0,0,0-0.1,0-0.1 c-0.1-0.3-0.2-0.5-0.3-0.7c0-0.1-0.1-0.2-0.1-0.3c-0.1-0.2-0.2-0.5-0.4-0.7c0-0.1-0.1-0.1-0.1-0.2c-0.1-0.2-0.2-0.3-0.3-0.5 c-0.1-0.1-0.1-0.2-0.2-0.2c0,0,0-0.1-0.1-0.1l0,0c-4.9-6.3-14.1-3.1-21.3-1.8c-7.4,1.1-13.9,1.3-19.6,2.9c-3.4,1.4-2,3.9,0.6,3.6 l10.1-0.5c1.7,0,2.3,1.2,0.3,2c-8.7,3.6-17.7,6.1-23.9,9.8c-3.4,1.6-2.8,5.4,1.7,3.5c7-3.1,13.5-4.7,20.4-6.4 c3.1-1,3.1,0.1-0.6,2.2c-7.2,4.3-13.7,8.9-20.7,13.5c-1.8,1.2-2.4,2.6-2.2,3.5l0,0c0,0,0,0,0,0c0,0,0,0.1,0,0.1c0,0,0,0,0,0.1 c0,0,0,0.1,0.1,0.1c0,0,0,0,0,0.1c0,0,0.1,0.1,0.1,0.1c0,0,0,0,0.1,0.1c0,0,0.1,0.1,0.1,0.1c0,0,0,0,0.1,0c0,0,0.1,0.1,0.1,0.1 c0,0,0,0,0.1,0c0.1,0,0.1,0.1,0.2,0.1c0,0,0,0,0,0c0.1,0,0.2,0,0.2,0.1c0,0,0.1,0,0.1,0c0.1,0,0.1,0,0.2,0c0,0,0.1,0,0.1,0 c0.1,0,0.1,0,0.2,0c0,0,0.1,0,0.1,0c0.1,0,0.1,0,0.2,0c0,0,0.1,0,0.1,0c0.1,0,0.1,0,0.2,0c0,0,0.1,0,0.2,0c0.1,0,0.1,0,0.2-0.1 c0.1,0,0.1,0,0.2,0c0.1,0,0.1,0,0.2-0.1c0.1,0,0.1,0,0.2-0.1c0.1,0,0.2-0.1,0.2-0.1c0.1,0,0.1,0,0.2-0.1c0.1,0,0.2-0.1,0.3-0.1 c0,0,0.1,0,0.1-0.1c0.1-0.1,0.3-0.2,0.5-0.2c6.9-4.1,11.2-6.8,21.8-11.6c3-1.3,5-0.9,2.7,1.9c-4.5,6.7-8.9,10.3-12.1,15 c-3,3.9-0.5,5.3,2.4,2.1c5.6-6,11.4-11.7,17.6-16.4c4.9-3.7,9-1.4,10.5,3.7c0.8,3.3,1.2,6.5,1.1,9.6c-0.1,3.6,3.3,3.3,5.2-2.8 c1.5-6.4,2-11.9,3.2-15.9C842.9,518.6,843.2,515,841.6,511.2z"/>
        <path class="st5" d="M1064,549.2c-6.5-5-12.7-10.3-17.9-16.1c-4.1-4.6-2.2-8.8,2.7-10.8c3.2-1.1,6.4-1.8,9.5-1.9 c3.6-0.3,3-3.6-3.3-4.9c-6.5-0.9-12.1-0.9-16.1-1.7c-5.6-1.2-9.2-1.2-12.8,0.7c-0.3,0.1-0.7,0.3-1,0.4c-0.1,0-0.2,0.1-0.2,0.1 c-0.3,0.1-0.6,0.3-0.9,0.4c0,0-0.1,0-0.1,0c-0.2,0.1-0.5,0.3-0.7,0.4c-0.1,0-0.2,0.1-0.2,0.1c-0.2,0.1-0.4,0.3-0.7,0.4 c-0.1,0-0.1,0.1-0.2,0.1c-0.2,0.1-0.3,0.3-0.5,0.4c-0.1,0.1-0.2,0.1-0.2,0.2c0,0-0.1,0.1-0.1,0.1l0,0c-5.9,5.4-1.8,14.3,0.1,21.3 c1.8,7.2,2.5,13.7,4.6,19.2c1.7,3.3,4.1,1.6,3.6-0.9l-1.4-10c-0.1-1.7,1-2.4,1.9-0.5c4.4,8.4,7.7,17.1,11.9,22.9 c1.9,3.3,5.7,2.3,3.3-2c-3.7-6.7-5.9-13-8.2-19.8c-1.3-3-0.1-3.1,2.2,0.4c4.9,6.8,10.1,12.8,15.3,19.4c1.4,1.6,2.8,2.2,3.6,1.8 l0,0c0,0,0,0,0,0c0,0,0.1,0,0.1-0.1c0,0,0,0,0.1,0c0,0,0.1,0,0.1-0.1c0,0,0,0,0.1,0c0,0,0.1-0.1,0.1-0.1c0,0,0,0,0-0.1 c0,0,0.1-0.1,0.1-0.1c0,0,0,0,0-0.1c0,0,0-0.1,0.1-0.1c0,0,0,0,0,0c0-0.1,0.1-0.3,0.1-0.5c0,0,0,0,0-0.1c0-0.1,0-0.1,0-0.2 c0,0,0-0.1,0-0.1c0-0.1,0-0.1,0-0.2c0,0,0-0.1,0-0.1c0-0.1,0-0.1,0-0.2c0,0,0-0.1,0-0.1c0-0.1,0-0.1-0.1-0.2c0,0,0-0.1,0-0.1 c0-0.1,0-0.1-0.1-0.2c0,0,0-0.1-0.1-0.1c0-0.1-0.1-0.1-0.1-0.2c0,0,0-0.1-0.1-0.2c0-0.1-0.1-0.2-0.1-0.2c0,0-0.1-0.1-0.1-0.1 c-0.1-0.1-0.1-0.2-0.2-0.3c0,0,0-0.1-0.1-0.1c-0.1-0.1-0.2-0.3-0.3-0.4c-4.7-6.5-7.8-10.6-13.5-20.7c-1.5-2.8-1.3-4.9,1.6-2.9 c7.1,3.9,11,7.9,16,10.7C1066.3,554.5,1067.4,551.8,1064,549.2z"/>
        <path class="st2" d="M940.4,549.8c-3-5-6.1-8.9-7.9-12.2c-2.3-4.6-4.4-7.1-7.7-8.5c-0.3-0.2-0.6-0.3-0.8-0.5 c-0.1,0-0.1-0.1-0.2-0.1c-0.3-0.1-0.5-0.3-0.8-0.4c0,0-0.1,0-0.1,0c-0.2-0.1-0.5-0.2-0.7-0.3c-0.1,0-0.2-0.1-0.2-0.1 c-0.2-0.1-0.4-0.1-0.7-0.2c-0.1,0-0.1,0-0.2-0.1c-0.2,0-0.4-0.1-0.5-0.1c-0.1,0-0.2,0-0.3,0c0,0-0.1,0-0.1,0l0,0 c-7.1-1.1-11,6.8-14.8,12.1c-4,5.3-8.2,9.5-10.8,14.1c-1.3,3,1.1,3.8,2.7,2l6.2-6.6c1.1-1.1,2.2-0.6,1.4,1 c-3.4,7.8-7.6,15-9.3,21.2c-1.2,3.2,1.6,5.2,3.3,1.2c2.6-6.3,5.7-11.4,9.2-16.9c1.3-2.6,2.1-1.8,0.9,1.8 c-2,7.3-3.3,14.3-4.9,21.6c-0.4,1.9,0.1,3.2,0.8,3.6l0,0c0.1,0,0.1,0.1,0.2,0.1c0,0,0,0,0.1,0c0.1,0,0.2,0,0.3,0c0,0,0,0,0.1,0 c0.1,0,0.2,0,0.3-0.1c0,0,0,0,0,0c0.1,0,0.2-0.1,0.3-0.2c0,0,0,0,0,0c0.1-0.1,0.2-0.2,0.3-0.3c0,0,0,0,0,0 c0.1-0.1,0.2-0.2,0.3-0.4c0,0,0,0,0.1-0.1c0.1-0.1,0.2-0.3,0.3-0.5c0,0,0-0.1,0-0.1c0.1-0.2,0.2-0.4,0.3-0.6c0,0,0-0.1,0-0.1 c0.1-0.2,0.2-0.5,0.3-0.7c1.9-7,3-11.4,6.8-21.1c1.1-2.7,2.7-3.7,2.9-0.5c1.3,7.1,0.7,12.2,1.6,17.2c0.5,4.4,3,3.7,2.9-0.1 c-0.1-7.3,0-14.6,1.1-21.6c0.9-5.5,4.9-6.5,9.1-4.2c2.5,1.6,4.8,3.4,6.7,5.5C941,557.3,943,555,940.4,549.8z"/>
        <path class="st2" d="M1122.7,366.4c6.7-2.1,12.8-4.6,19.3-7c1.7-0.7,2.4-1.6,2.4-2.4l0,0c0,0,0-0.1,0-0.1c0-0.1,0-0.1,0-0.2 c0,0,0-0.1-0.1-0.1c0-0.1-0.1-0.1-0.1-0.2c0,0-0.1-0.1-0.1-0.1c-0.1,0-0.1-0.1-0.2-0.1c0,0-0.1-0.1-0.1-0.1 c-0.1,0-0.1-0.1-0.2-0.1c-0.1,0-0.1,0-0.2-0.1c-0.1,0-0.2,0-0.3-0.1c-0.1,0-0.1,0-0.2,0c-0.1,0-0.2,0-0.4,0c-0.1,0-0.2,0-0.2,0 c-0.1,0-0.3,0-0.5,0.1c-0.1,0-0.2,0-0.2,0c-0.3,0-0.5,0.1-0.8,0.2c-6.4,2-10.4,3.4-19.9,5.3c-2.6,0.5-4.2-0.2-1.9-2 c4.9-4.6,9.2-6.6,12.6-9.9c3.2-2.6,1.4-4.2-1.6-2.2c-5.7,3.8-11.4,7.4-17.4,10c-4.7,2.1-7.5-0.6-7.8-5c0-2.8,0.2-5.5,1-8 c0.7-2.9-2.1-3.3-4.8,1.3c-2.4,4.9-3.9,9.3-5.6,12.3c-2.4,4.1-3.3,6.9-2.8,10.3c0,0.4,0,0.8,0.1,1.2c0,0.1,0,0.2,0,0.3 c0,0.3,0.1,0.6,0.1,0.8c0,0.1,0,0.2,0.1,0.3c0.2,0.7,0.4,1.3,0.6,1.9c0,0,0,0,0,0.1l0,0c2.7,6.1,10.8,5.2,16.9,5.5 c6.2,0.5,11.5,1.6,16.4,1.4c3-0.5,2.3-2.8,0.2-3.1l-8.2-1.5c-1.4-0.4-1.6-1.4,0.1-1.6c7.8-1.3,15.5-1.6,21.2-3.4 c3.1-0.7,3.3-3.9-0.7-3.2c-6.2,1.2-11.8,1.3-17.8,1.3C1119,368.3,1119.3,367.4,1122.7,366.4z"/>
        <path class="st6" d="M1011.8,270.5c-1.8,1.1-3.8,2-6,2.6c-3.5,0.8-6.2-0.7-5.7-4.9c0.6-5.2,2-10.5,3.6-15.8 c0.9-2.8-0.8-3.8-2.1-0.7c-1.7,3.5-2.3,7.3-4.6,12.1c-0.8,2.2-1.8,1.2-2-1c-0.8-7.8-0.7-11.3-0.7-16.7c0-0.2,0-0.5,0-0.7 c0-0.1,0-0.1,0-0.2c0-0.1,0-0.3-0.1-0.4c0-0.1,0-0.1-0.1-0.2c0-0.1-0.1-0.2-0.1-0.3c0-0.1,0-0.1-0.1-0.2c0-0.1-0.1-0.1-0.1-0.2 c0,0-0.1-0.1-0.1-0.1c0-0.1-0.1-0.1-0.1-0.2c0,0-0.1-0.1-0.1-0.1c0,0-0.1-0.1-0.1-0.1c0,0-0.1,0-0.1-0.1c-0.1,0-0.1,0-0.2,0 c0,0-0.1,0-0.1,0c-0.1,0-0.1,0-0.2,0c0,0,0,0-0.1,0v0c-0.6,0.2-1.2,1-1.3,2.4c-0.3,5.7-0.8,11-0.8,16.7c0.1,2.9-0.6,3.2-1.1,1.1 c-1.4-4.6-2.7-9-3.2-14.1c-0.4-3.3-2.8-2.3-2.6,0.2c0,4.8,1.6,10.9,2.4,17.2c0.2,1.4-0.6,1.5-1.3,0.5l-3.2-6 c-0.7-1.6-2.7-1.6-2.3,0.9c1,3.9,3.1,7.7,5,12.4c1.7,4.6,2.9,11.1,8.3,11.8v0c0,0,0,0,0,0c0.5,0.1,1,0.1,1.6,0c0.1,0,0.2,0,0.2,0 c0.2,0,0.4-0.1,0.7-0.1c0.1,0,0.2,0,0.3,0c0.3-0.1,0.6-0.1,0.9-0.2c2.7-0.4,4.7-1.7,7.3-4.6c1.9-2,5-4.2,8.2-7.3 C1014.8,271.3,1013.8,269.3,1011.8,270.5z"/>
        <path class="st3" d="M1164.9,400.4c0.1-0.1,0.1-0.2,0.2-0.3c0,0,0,0,0,0c0-0.1,0.1-0.2,0.1-0.3c0,0,0,0,0,0c0-0.1,0-0.2,0-0.3 c0,0,0,0,0-0.1c0-0.1,0-0.2-0.1-0.2l0,0c-0.3-0.7-1.5-1.3-3.3-1.2c-7.2,0.6-14.1,1-21.2,2c-3.6,0.6-4.2-0.2-1.6-1.1 c5.6-2.6,10.9-5,17.2-6.7c4.1-1.1,2.4-4-0.7-3.3c-6.1,0.8-13.5,4-21.4,6.2c-1.7,0.5-2-0.6-0.8-1.5l7-5.1c1.9-1.2,1.5-3.7-1.5-2.8 c-4.7,2-9.2,5.4-14.8,8.6c-5.5,3-13.5,5.7-13.4,12.6l0,0c0,0,0,0.1,0,0.1c0,0.1,0,0.2,0,0.3c0,0.2,0,0.3,0,0.5c0,0.1,0,0.2,0,0.2 c0,0.2,0.1,0.4,0.1,0.6c0,0.1,0,0.2,0.1,0.2c0,0.2,0.1,0.4,0.2,0.7c0,0,0,0.1,0,0.1c0.1,0.3,0.2,0.5,0.3,0.8 c0,0.1,0.1,0.1,0.1,0.2c0.1,0.3,0.2,0.6,0.3,0.8c1,3.4,3.1,5.7,7.2,8.4c2.9,2.1,6.2,5.5,10.7,9c4.6,3.1,7,1.5,5-0.9 c-1.8-2-3.2-4.4-4.4-7.1c-1.7-4.2-0.2-8,5.1-8.1c6.7-0.2,13.7,0.6,20.7,1.7c3.6,0.6,4.7-1.7,0.5-2.7c-4.7-1.5-9.6-1.5-16.2-3.7 c-3-0.7-1.8-2,0.9-2.7c9.8-2.5,14.1-3,21-3.9c0.3,0,0.5-0.1,0.7-0.1c0,0,0.1,0,0.1,0c0.2-0.1,0.4-0.1,0.6-0.2c0,0,0.1,0,0.1,0 c0.2-0.1,0.3-0.1,0.5-0.2c0,0,0.1,0,0.1,0c0.1-0.1,0.3-0.2,0.4-0.2c0,0,0,0,0.1,0C1164.7,400.6,1164.8,400.5,1164.9,400.4 C1164.9,400.4,1164.9,400.4,1164.9,400.4z"/>
        <path class="st5" d="M1124.3,313c-4.7,3.3-9.2,5.4-14.1,7.7c-2.1,1.2-2.3,0.3,0.2-1.7c4.7-4.2,8.8-8.5,13.3-13 c1.1-1.2,1.4-2.3,1.1-2.9l0,0c0-0.1-0.1-0.1-0.1-0.2c0,0,0,0,0,0c-0.1-0.1-0.1-0.1-0.2-0.1c0,0,0,0,0,0c-0.1,0-0.2-0.1-0.2-0.1 c0,0,0,0,0,0c-0.1,0-0.2,0-0.3,0c0,0,0,0,0,0c-0.1,0-0.2,0-0.3,0c0,0,0,0,0,0c-0.1,0-0.2,0.1-0.4,0.1c0,0,0,0-0.1,0 c-0.1,0.1-0.3,0.1-0.4,0.2c0,0,0,0-0.1,0c-0.1,0.1-0.3,0.2-0.5,0.3c0,0,0,0-0.1,0c-0.2,0.1-0.3,0.3-0.5,0.4 c-4.5,4-7.3,6.6-14.4,11.7c-2,1.4-3.5,1.4-2.3-1c2.3-5.6,5-8.9,6.7-12.8c1.7-3.3-0.4-4-2.1-1.2c-3.3,5.2-6.7,10.3-10.6,14.7 c-3.1,3.4-6.4,2.3-8.3-1.2c-1.1-2.3-1.8-4.6-2.2-6.9c-0.5-2.6-2.9-1.9-3.4,2.8c-0.2,4.9,0.3,9.1,0,12.2c-0.5,4.3-0.1,6.9,1.6,9.5 c0.1,0.2,0.2,0.5,0.4,0.7c0,0.1,0.1,0.1,0.1,0.2c0.1,0.2,0.3,0.4,0.4,0.6c0,0,0,0,0,0.1c0.1,0.2,0.2,0.3,0.4,0.5 c0,0.1,0.1,0.1,0.1,0.2c0.1,0.2,0.2,0.3,0.4,0.4c0,0,0.1,0.1,0.1,0.1c0.1,0.1,0.2,0.2,0.3,0.3c0.1,0.1,0.1,0.1,0.2,0.2 c0,0,0,0,0.1,0.1l0,0c4.5,4,10.8,0.2,15.9-1.8c5.3-1.9,10-3,14-5c2.3-1.5,0.9-3.2-1-2.6l-7.3,1.8c-1.3,0.2-1.9-0.6-0.5-1.4 c5.9-3.9,12.1-7.1,16.1-10.7C1128.3,313.6,1127.3,310.9,1124.3,313z"/>
        <path class="st4" d="M799.6,446L799.6,446C799.6,446,799.6,445.9,799.6,446c-0.1-0.6-0.2-1.1-0.4-1.7c0-0.1-0.1-0.2-0.1-0.2 c-0.1-0.2-0.2-0.4-0.3-0.7c0-0.1-0.1-0.2-0.1-0.3c-0.1-0.3-0.3-0.6-0.5-0.9c-1.1-2.7-3.1-4.4-6.8-6.3c-2.6-1.4-5.8-4-9.8-6.5 c-4.1-2.1-6-0.5-4.1,1.3c1.7,1.5,3.1,3.4,4.4,5.4c1.8,3.4,0.9,6.6-3.5,7.3c-5.6,0.8-11.5,0.8-17.4,0.7c-3.1-0.1-3.7,1.9-0.1,2.3 c4.1,0.8,8.1,0.3,13.9,1.4c2.6,0.3,1.7,1.5-0.4,2.4c-7.9,3-11.5,3.9-17.1,5.3c-0.2,0.1-0.5,0.1-0.7,0.2c-0.1,0-0.1,0.1-0.2,0.1 c-0.1,0.1-0.3,0.1-0.4,0.2c-0.1,0-0.1,0.1-0.2,0.1c-0.1,0.1-0.2,0.1-0.3,0.2c-0.1,0-0.1,0.1-0.1,0.1c-0.1,0.1-0.1,0.1-0.2,0.2 c0,0-0.1,0.1-0.1,0.1c0,0.1-0.1,0.1-0.1,0.2c0,0,0,0.1-0.1,0.1c0,0.1,0,0.1-0.1,0.2c0,0,0,0.1,0,0.1c0,0.1,0,0.1,0,0.2 c0,0,0,0.1,0,0.1c0,0.1,0,0.1,0.1,0.2c0,0,0,0.1,0,0.1l0,0c0.3,0.6,1.3,0.9,2.9,0.7c6-1.3,11.6-2.2,17.5-3.8 c2.9-0.9,3.5-0.3,1.5,0.8c-4.4,2.8-8.6,5.2-13.7,7.3c-3.3,1.3-1.6,3.6,0.9,2.7c5-1.3,10.9-4.7,17.2-7.3c1.4-0.6,1.7,0.3,0.8,1.2 l-5.4,4.9c-1.5,1.2-0.9,3.2,1.6,2.2c3.7-2.1,7.1-5.4,11.5-8.6C794,454.8,800.4,451.7,799.6,446z"/>
        <path class="st4" d="M920.8,271.6c-1.2,1.9-2.8,3.7-4.6,5.3c-3,2.4-6.3,2.1-7.8-2.1c-1.8-5.4-2.9-11.2-3.8-17 c-0.4-3.1-2.5-3.3-2.3,0.3c0,4.1,1.1,8.1,1.1,13.9c0.2,2.6-1.2,2-2.4,0c-4.4-7.2-5.9-10.6-8.3-15.9c-0.1-0.2-0.2-0.4-0.3-0.6 c0,0,0,0,0-0.1c-0.1-0.2-0.2-0.3-0.3-0.4c0,0,0,0,0-0.1c-0.1-0.1-0.2-0.2-0.3-0.3c0,0,0,0,0,0c-0.1-0.1-0.2-0.2-0.3-0.2 c0,0,0,0,0,0c-0.1-0.1-0.2-0.1-0.3-0.2c0,0,0,0,0,0c-0.1,0-0.2-0.1-0.3-0.1c0,0,0,0,0,0c-0.1,0-0.2,0-0.3,0c0,0,0,0,0,0 c-0.1,0-0.1,0-0.2,0.1c0,0,0,0,0,0c-0.1,0-0.1,0.1-0.2,0.1l0,0c-0.5,0.4-0.7,1.5-0.1,2.9c2.3,5.6,4.3,11,6.8,16.5 c1.4,2.7,0.9,3.4-0.5,1.6c-3.5-3.8-6.7-7.5-9.6-12.2c-1.9-3-3.8-1-2.4,1.4c2.2,4.7,6.5,9.9,10.3,15.6c0.9,1.2,0,1.7-1,1l-5.8-4.4 c-1.5-1.2-3.3-0.3-1.9,1.9c2.7,3.3,6.6,6,10.5,9.7c3.8,3.7,7.9,9.4,13.4,7.6l0,0c0,0,0.1,0,0.1,0c0.1,0,0.1-0.1,0.2-0.1 c0.1,0,0.3-0.1,0.4-0.2c0.1,0,0.1-0.1,0.2-0.1c0.2-0.1,0.3-0.2,0.5-0.2c0.1,0,0.1-0.1,0.2-0.1c0.2-0.1,0.3-0.2,0.5-0.3 c0,0,0,0,0.1,0c0.2-0.1,0.4-0.3,0.6-0.4c0.1,0,0.1-0.1,0.2-0.1c0.2-0.2,0.4-0.3,0.6-0.5c2.5-1.6,3.8-3.9,5-7.8 c0.9-2.8,2.9-6.4,4.6-10.8C924.1,271,922.2,269.5,920.8,271.6z"/>
        <path class="st4" d="M1102,532.5c-3.3-2.7-8.5-4.9-13.3-7.7c-1.1-0.6-0.7-1.2,0.4-1.1l5.9,1.1c1.5,0.4,2.6-1,0.7-2.1 c-3.2-1.4-7.1-2-11.3-3.3c-4.1-1.3-9.3-4-12.7-0.7l0,0c0,0,0,0,0,0c-0.3,0.3-0.6,0.7-0.9,1.1c0,0.1-0.1,0.1-0.1,0.2 c-0.1,0.2-0.2,0.3-0.3,0.5c0,0.1-0.1,0.1-0.1,0.2c-0.1,0.2-0.2,0.5-0.4,0.8c-1.2,2.1-1.4,4.3-0.8,7.6c0.4,2.4,0.2,5.8,0.6,9.7 c0.6,3.8,2.6,4.2,2.9,2.1c0.2-1.9,0.7-3.7,1.4-5.6c1.3-2.9,3.9-3.9,6.5-1.3c3.3,3.3,6.2,7.2,9.1,11.1c1.4,2.1,3.1,1.5,1.6-1.1 c-1.5-3.1-3.8-5.5-5.9-9.9c-1.1-1.8,0.1-1.9,1.8-0.9c5.9,3.7,8.2,5.6,12,8.6c0.2,0.1,0.3,0.2,0.5,0.3c0.1,0,0.1,0.1,0.2,0.1 c0.1,0.1,0.2,0.1,0.3,0.2c0.1,0,0.1,0,0.2,0.1c0.1,0,0.2,0.1,0.2,0.1c0.1,0,0.1,0,0.2,0c0.1,0,0.1,0,0.2,0c0,0,0.1,0,0.1,0 c0.1,0,0.1,0,0.2,0c0,0,0.1,0,0.1,0c0.1,0,0.1,0,0.1,0c0,0,0.1,0,0.1,0c0,0,0.1-0.1,0.1-0.1c0,0,0,0,0.1-0.1c0,0,0.1-0.1,0.1-0.1 c0,0,0,0,0-0.1l0,0c0.2-0.5-0.1-1.3-1-2.2c-3.8-3.3-7.2-6.6-11.1-9.7c-2-1.5-1.9-2.2-0.2-1.3c4,1.5,7.7,3,11.6,5.4 C1103.2,535.9,1103.9,533.7,1102,532.5z"/>
        <path class="st2" d="M855.4,303.2c-0.5,1.9-1.4,3.8-2.6,5.7c-1.9,2.8-4.9,3.4-7.2,0.1c-2.9-4.1-5.3-8.8-7.5-13.6 c-1.1-2.5-3-2.2-1.9,0.8c1,3.5,3,6.6,4.4,11.6c0.8,2.1-0.5,2-2.1,0.6c-5.6-5.1-7.7-7.6-11.1-11.5c-0.2-0.2-0.3-0.3-0.5-0.4 c0,0-0.1-0.1-0.1-0.1c-0.1-0.1-0.2-0.2-0.3-0.2c-0.1,0-0.1-0.1-0.2-0.1c-0.1-0.1-0.2-0.1-0.2-0.1c-0.1,0-0.1,0-0.2-0.1 c-0.1,0-0.1-0.1-0.2-0.1c-0.1,0-0.1,0-0.1,0c-0.1,0-0.1,0-0.2,0c0,0-0.1,0-0.1,0c-0.1,0-0.1,0-0.2,0c0,0-0.1,0-0.1,0 c0,0-0.1,0-0.1,0.1c0,0-0.1,0-0.1,0.1c0,0-0.1,0.1-0.1,0.1c0,0,0,0,0,0.1l0,0c-0.3,0.5-0.2,1.4,0.6,2.6c3.4,4.3,6.4,8.4,10,12.4 c1.9,2,1.6,2.7,0,1.5c-3.9-2.4-7.6-4.7-11.3-8c-2.4-2.1-3.5,0.1-1.7,1.8c3.1,3.5,8.1,6.8,12.7,10.8c1,0.8,0.5,1.5-0.6,1.1 l-6.1-2.3c-1.6-0.7-2.9,0.6-1.1,2.1c3.2,2.1,7.1,3.5,11.4,5.7c4.2,2.2,9.1,6.1,13.4,3.1l0,0c0,0,0,0,0,0c0.4-0.3,0.8-0.6,1.1-1 c0.1-0.1,0.1-0.1,0.1-0.2c0.1-0.2,0.3-0.3,0.4-0.5c0.1-0.1,0.1-0.1,0.2-0.2c0.2-0.2,0.4-0.5,0.5-0.7c1.7-2,2.3-4.3,2.3-7.9 c0.1-2.7,0.9-6.2,1.2-10.4C858,301.8,856,301,855.4,303.2z"/>
        <path class="st3" d="M801,486.8L801,486.8C801,486.8,801,486.8,801,486.8c-0.2-0.5-0.3-1-0.6-1.5c0-0.1-0.1-0.1-0.1-0.2 c-0.1-0.2-0.2-0.4-0.3-0.6c0-0.1-0.1-0.1-0.1-0.2c-0.2-0.3-0.4-0.5-0.6-0.8c-1.4-2.4-3.5-3.7-7.1-4.9c-2.6-1-5.8-2.9-9.9-4.7 c-4.1-1.4-5.6,0.3-3.6,1.7c1.7,1.2,3.3,2.7,4.8,4.4c2.1,2.9,1.7,6-2.2,7.2c-5.1,1.5-10.5,2.3-16,2.9c-2.9,0.3-3.2,2.2,0.2,2.2 c3.9,0.2,7.6-0.8,13-0.5c2.4-0.1,1.8,1.1-0.1,2.2c-6.9,3.8-10.1,5.1-15.1,7.2c-0.2,0.1-0.4,0.2-0.6,0.3c-0.1,0-0.1,0.1-0.2,0.1 c-0.1,0.1-0.2,0.1-0.3,0.2c-0.1,0-0.1,0.1-0.2,0.1c-0.1,0.1-0.2,0.1-0.2,0.2c0,0-0.1,0.1-0.1,0.1c-0.1,0.1-0.1,0.1-0.1,0.2 c0,0-0.1,0.1-0.1,0.1c0,0.1-0.1,0.1-0.1,0.2c0,0,0,0.1,0,0.1c0,0.1,0,0.1,0,0.2c0,0,0,0.1,0,0.1c0,0.1,0,0.1,0,0.2 c0,0,0,0.1,0,0.1c0,0.1,0,0.1,0.1,0.1c0,0,0,0,0,0.1l0,0c0.4,0.5,1.4,0.7,2.7,0.2c5.3-1.9,10.4-3.6,15.7-5.8 c2.6-1.2,3.2-0.7,1.4,0.5c-3.7,3.1-7.2,6-11.7,8.5c-2.8,1.7-1,3.5,1.2,2.3c4.5-1.9,9.4-5.7,14.9-9c1.2-0.8,1.6,0,0.9,1l-4.3,5.3 c-1.2,1.3-0.4,3.1,1.7,1.8c3.2-2.4,5.9-5.9,9.4-9.4C797,495.6,802.5,492,801,486.8z"/>
        <path class="st5" d="M1139.6,510.8c0,0,0.1-0.1,0.1-0.1c0,0,0-0.1,0-0.1c0-0.1,0-0.1,0-0.2c0,0,0,0,0-0.1l0,0 c0-0.6-0.7-1.3-2-1.7c-5.2-1.5-10.1-3.2-15.3-4.5c-2.7-0.6-2.9-1.3-0.8-1.2c4.6-0.3,8.9-0.5,13.8,0.1c3.1,0.3,2.8-2.1,0.4-2.5 c-4.5-1.1-10.5-1-16.6-1.6c-1.3-0.1-1.2-0.9-0.2-1.3l6.3-1.6c1.7-0.3,2.1-2.2-0.3-2.4c-3.8,0.1-7.9,1.2-12.6,1.9 c-4.7,0.6-11,0.3-12.8,5.1l0,0c0,0,0,0,0,0c-0.2,0.4-0.3,0.9-0.4,1.5c0,0.1,0,0.1,0,0.2c0,0.2,0,0.4-0.1,0.6c0,0.1,0,0.2,0,0.2 c0,0.3,0,0.6,0,0.9c-0.3,2.6,0.6,4.8,2.7,7.8c1.5,2.2,2.8,5.6,4.9,9.2c2.3,3.4,4.5,2.9,3.7,0.7c-0.7-1.9-1-4-1.1-6.1 c0-3.4,2.1-5.6,5.8-4.2c4.7,1.7,9.4,4.2,13.9,6.8c2.4,1.4,3.7,0.1,1.1-1.8c-2.9-2.3-6.3-3.7-10.3-7c-1.9-1.3-0.7-1.9,1.3-1.7 c7.5,1,10.6,1.8,15.7,3.1c0.2,0,0.4,0.1,0.6,0.1c0.1,0,0.1,0,0.2,0c0.1,0,0.3,0,0.4,0c0.1,0,0.1,0,0.2,0c0.1,0,0.2,0,0.3,0 c0.1,0,0.1,0,0.2,0c0.1,0,0.2,0,0.2-0.1c0,0,0.1,0,0.1-0.1c0.1,0,0.1-0.1,0.2-0.1c0,0,0.1,0,0.1-0.1 C1139.4,511,1139.5,511,1139.6,510.8C1139.5,510.9,1139.5,510.9,1139.6,510.8z"/>
        <path class="st3" d="M849.7,466.9L849.7,466.9C849.7,466.8,849.7,466.8,849.7,466.9c-0.2-0.5-0.3-1-0.6-1.5 c0-0.1-0.1-0.1-0.1-0.2c-0.1-0.2-0.2-0.4-0.3-0.6c0-0.1-0.1-0.1-0.1-0.2c-0.2-0.3-0.4-0.5-0.6-0.8c-1.4-2.4-3.5-3.7-7.1-4.9 c-2.6-1-5.8-2.9-9.9-4.7c-4.1-1.4-5.6,0.3-3.6,1.7c1.7,1.2,3.3,2.7,4.8,4.4c2.1,2.9,1.7,6-2.2,7.2c-5.1,1.5-10.5,2.3-16,2.9 c-2.9,0.3-3.2,2.2,0.2,2.2c3.9,0.2,7.6-0.8,13-0.5c2.4-0.1,1.8,1.1-0.1,2.2c-6.9,3.8-10.1,5.1-15.1,7.2c-0.2,0.1-0.4,0.2-0.6,0.3 c-0.1,0-0.1,0.1-0.2,0.1c-0.1,0.1-0.2,0.1-0.3,0.2c-0.1,0-0.1,0.1-0.2,0.1c-0.1,0.1-0.2,0.1-0.2,0.2c0,0-0.1,0.1-0.1,0.1 c-0.1,0.1-0.1,0.1-0.1,0.2c0,0-0.1,0.1-0.1,0.1c0,0.1-0.1,0.1-0.1,0.2c0,0,0,0.1,0,0.1c0,0.1,0,0.1,0,0.2c0,0,0,0.1,0,0.1 c0,0.1,0,0.1,0,0.2c0,0,0,0.1,0,0.1c0,0.1,0,0.1,0.1,0.1c0,0,0,0,0,0.1l0,0c0.4,0.5,1.4,0.7,2.7,0.2c5.3-1.9,10.4-3.6,15.7-5.8 c2.6-1.2,3.2-0.7,1.4,0.5c-3.7,3.1-7.2,6-11.7,8.5c-2.8,1.7-1,3.5,1.2,2.3c4.5-1.9,9.4-5.7,14.9-9c1.2-0.8,1.6,0,0.9,1l-4.3,5.3 c-1.2,1.3-0.4,3.1,1.7,1.8c3.2-2.4,5.9-5.9,9.4-9.4C845.7,475.7,851.2,472,849.7,466.9z"/>
      </g>
      <path class="st4" d="M959,439.5c-1.2,1.9-2.8,3.7-4.6,5.3c-3,2.4-6.3,2.1-7.8-2.1c-1.8-5.4-2.9-11.2-3.8-17 c-0.4-3.1-2.5-3.3-2.3,0.3c0,4.1,1.1,8.1,1.1,13.9c0.2,2.6-1.2,2-2.4,0c-4.4-7.2-5.9-10.6-8.3-15.9c-0.1-0.2-0.2-0.4-0.3-0.6 c0,0,0,0,0-0.1c-0.1-0.2-0.2-0.3-0.3-0.4c0,0,0,0,0-0.1c-0.1-0.1-0.2-0.2-0.3-0.3c0,0,0,0,0,0c-0.1-0.1-0.2-0.2-0.3-0.2 c0,0,0,0,0,0c-0.1-0.1-0.2-0.1-0.3-0.2c0,0,0,0,0,0c-0.1,0-0.2-0.1-0.3-0.1c0,0,0,0,0,0c-0.1,0-0.2,0-0.3,0c0,0,0,0,0,0 c-0.1,0-0.1,0-0.2,0.1c0,0,0,0,0,0c-0.1,0-0.1,0.1-0.2,0.1l0,0c-0.5,0.4-0.7,1.5-0.1,2.9c2.3,5.6,4.3,11,6.8,16.5 c1.4,2.7,0.9,3.4-0.5,1.6c-3.5-3.8-6.7-7.5-9.6-12.2c-1.9-3-3.8-1-2.4,1.4c2.2,4.7,6.5,9.9,10.3,15.6c0.9,1.2,0,1.7-1,1l-5.8-4.4 c-1.5-1.2-3.3-0.3-1.9,1.9c2.7,3.3,6.6,6,10.5,9.7c3.8,3.7,7.9,9.4,13.4,7.6l0,0c0,0,0.1,0,0.1,0c0.1,0,0.1-0.1,0.2-0.1 c0.1,0,0.3-0.1,0.4-0.2c0.1,0,0.1-0.1,0.2-0.1c0.2-0.1,0.3-0.2,0.5-0.2c0.1,0,0.1-0.1,0.2-0.1c0.2-0.1,0.3-0.2,0.5-0.3 c0,0,0,0,0.1,0c0.2-0.1,0.4-0.3,0.6-0.4c0.1,0,0.1-0.1,0.2-0.1c0.2-0.2,0.4-0.3,0.6-0.5c2.5-1.6,3.8-3.9,5-7.8 c0.9-2.8,2.9-6.4,4.6-10.8C962.3,438.9,960.4,437.3,959,439.5z"/>
      <path class="st3" d="M902.7,444.4c-1,1.7-2.4,3.2-4,4.6c-2.6,2.1-5.5,1.8-6.8-1.8c-1.6-4.7-2.5-9.7-3.3-14.8 c-0.4-2.7-2.2-2.9-2,0.2c0,3.6,1,7,0.9,12.1c0.2,2.2-1,1.7-2.1,0c-3.8-6.3-5.1-9.2-7.2-13.8c-0.1-0.2-0.2-0.4-0.3-0.5 c0-0.1-0.1-0.1-0.1-0.2c-0.1-0.1-0.1-0.2-0.2-0.3c0-0.1-0.1-0.1-0.1-0.1c-0.1-0.1-0.1-0.1-0.2-0.2c0,0-0.1-0.1-0.1-0.1 c-0.1,0-0.1-0.1-0.2-0.1c0,0-0.1-0.1-0.1-0.1c-0.1,0-0.1-0.1-0.2-0.1c0,0-0.1,0-0.1,0c-0.1,0-0.1,0-0.2,0c0,0-0.1,0-0.1,0 c-0.1,0-0.1,0-0.1,0c0,0-0.1,0-0.1,0c0,0-0.1,0-0.1,0.1c0,0,0,0-0.1,0l0,0c-0.4,0.4-0.6,1.3-0.1,2.6c2,4.9,3.7,9.6,5.9,14.4 c1.2,2.4,0.8,3-0.4,1.4c-3-3.3-5.8-6.5-8.3-10.6c-1.6-2.6-3.3-0.8-2.1,1.2c1.9,4.1,5.7,8.6,8.9,13.5c0.7,1.1,0,1.5-0.9,0.9 l-5.1-3.8c-1.3-1.1-2.9-0.2-1.6,1.7c2.4,2.9,5.7,5.3,9.1,8.5c3.3,3.2,6.9,8.2,11.7,6.6l0,0c0,0,0,0,0,0c0.4-0.1,0.9-0.3,1.3-0.6 c0.1,0,0.1-0.1,0.2-0.1c0.2-0.1,0.3-0.2,0.5-0.3c0.1,0,0.1-0.1,0.2-0.1c0.2-0.2,0.5-0.3,0.7-0.5c2.2-1.4,3.3-3.4,4.3-6.8 c0.8-2.5,2.5-5.5,4-9.4C905.6,443.9,904,442.6,902.7,444.4z"/>
    </g>
    <g>
      <path class="st0" d="M880,658.7v6.4v8h-7.8c-2.2,0-4-1.9-4-4.1v-10.3c0-1.5-1.3-2.9-3-2.9h-0.5c-1.7,0-3,1.4-3,2.9v23 c0,1.7,1.3,3.1,3,3.1h0.5c8.2,0,14.8,6.8,14.8,15.2V752c0,8.4-6.7,15.2-14.8,15.2h-0.5c-8.2,0-14.8-6.8-14.8-15.2v-28.7h11.8V752 c0,1.7,1.3,3.1,3,3.1h0.5c1.7,0,3-1.4,3-3.1V700c0-1.7-1.3-3.1-3-3.1h-0.5c-8.2,0-14.8-6.8-14.8-15.2v-23c0-8.4,6.7-15,14.8-15 h0.5C873.3,643.7,880,650.3,880,658.7z"/>
      <path class="st0" d="M912.4,754.1v12.1h-28.2V645h28.2v12.3H896v27.2h13.3v12.1H896v57.4H912.4z"/>
      <path class="st0" d="M954.7,676.9l-7.5,50.6h-11.5l-7.3-50.6v89.6h-11.8V645.4h13.5l11.5,39.4l11.3-39.4h13.7v121.2h-11.8V676.9z"/>
      <path class="st0" d="M999,754.1v12.1h-28.2V645H999v12.3h-16.4v27.2H996v12.1h-13.3v57.4H999z"/>
      <path class="st0" d="M1033.3,658.7v107.5h-11.8v-69.5h-6.5v69.5h-11.8V658.7c0-8.4,6.7-15,14.8-15h0.5 C1026.7,643.7,1033.3,650.3,1033.3,658.7z M1021.5,658.7c0-1.5-1.3-2.9-3-2.9h-0.5c-1.7,0-3,1.4-3,2.9v25.8h6.5V658.7z"/>
      <path class="st0" d="M1065.2,683.9c2.2,2.6,3.5,6,3.5,9.7v72.5h-11.8v-66.5c0-1.7-1.3-3.1-2.8-3.1h-1.2h-3.5v69.5h-11.8V645h15.3 c8.2,0,14.8,6.8,14.8,15.2v15.1C1067.7,678.6,1066.9,681.5,1065.2,683.9z M1049.3,657.3v27.2h3.5c1.7,0,3-1.4,3-3.1v-21.2 c0-1.5-1.3-2.9-3-2.9H1049.3z"/>
    </g>
  </g>
</svg>